<?xml version="1.0" standalone="no"?><!DOCTYPE svg PUBLIC "-//W3C//DTD SVG 1.1//EN" "http://www.w3.org/Graphics/SVG/1.1/DTD/svg11.dtd"><svg class="icon" width="200px" height="200.00px" viewBox="0 0 1024 1024" version="1.1" xmlns="http://www.w3.org/2000/svg"><path fill="#889aa4" d="M1003.4432 564.2752l-155.15648-42.5216c68.352-46.91968 129.50528-114.3552 172.55936-207.6416 6.23616-13.53728 0.32768-29.57312-13.2096-35.82464-13.54752-6.25664-29.57824-0.32768-35.82976 13.20448-50.96448 110.44864-124.70272 175.5648-198.52288 213.77024-3.38944 0.95744-6.53824 2.54464-9.2928 4.70528-109.54752 53.39648-217.1648 49.01888-248.67328 46.24896l-7.6544-0.67584c-97.3312-8.45824-260.23424-22.62016-456.99584-269.56288-9.28256-11.65824-26.27072-13.58336-37.93408-4.29568-11.66336 9.2928-13.58336 26.27584-4.29568 37.9392 211.21536 265.09824 395.53024 281.1136 494.55104 289.72032l7.56736 0.66048c13.94176 1.23392 28.3392 1.8688 43.1104 1.8688 4.0192 0 8.09472-0.08192 12.17024-0.18432 0.8704 1.6896 1.90976 3.29728 3.1744 4.80768l101.00736 120.97536c5.33504 6.39488 13.00992 9.69216 20.736 9.69216 6.09792 0 12.23168-2.05312 17.29536-6.27712 11.43808-9.55392 12.96896-26.5728 3.41504-38.03136l-80.74752-96.70656c50.09408-7.38304 101.95456-22.30272 151.97184-46.40256L989.184 616.3456c2.38592 0.66048 4.7872 0.9728 7.14752 0.9728 11.86304 0 22.73792-7.8848 26.01984-19.88096C1026.28864 583.06048 1017.8304 568.21248 1003.4432 564.2752z" /></svg>