<?xml version="1.0" standalone="no"?><!DOCTYPE svg PUBLIC "-//W3C//DTD SVG 1.1//EN" "http://www.w3.org/Graphics/SVG/1.1/DTD/svg11.dtd"><svg class="icon" width="200px" height="200.00px" viewBox="0 0 1024 1024" version="1.1" xmlns="http://www.w3.org/2000/svg"><path fill="#889aa4" d="M1019.89376 528.39424c-111.57504-241.85856-344.69376-310.48192-510.2848-295.89504l-7.53152 0.66048c-99.02592 8.6016-283.3408 24.61184-494.57664 289.72544-9.2928 11.648-7.37792 28.6464 4.28032 37.93408 11.6736 9.27232 28.65152 7.38304 37.9392-4.29568 196.7872-246.96832 359.69536-261.12 457.02656-269.57312l7.61856-0.6656c53.5808-4.75136 327.74656-14.3104 456.48384 264.7296 4.56192 9.87648 14.34624 15.69792 24.54528 15.68256 3.76832 0 7.61856-0.78848 11.28448-2.47296C1020.2368 557.97248 1026.14528 541.93152 1019.89376 528.39424zM557.95712 350.3872c-122.19392 0-221.59872 97.8176-221.59872 218.05568 0 120.23808 99.40992 218.06592 221.59872 218.06592 122.17344 0 221.568-97.82272 221.568-218.06592C779.52512 448.2048 680.13056 350.3872 557.95712 350.3872zM557.95712 732.50816c-92.42112 0-167.6032-73.6-167.6032-164.0704 0-90.46016 75.1872-164.06016 167.6032-164.06016 92.41088 0 167.57248 73.6 167.57248 164.06016C725.5296 658.90816 650.36288 732.50816 557.95712 732.50816z" /></svg>